<svg version="1.1" id="Layer_1" xmlns="http://www.w3.org/2000/svg" xmlns:xlink="http://www.w3.org/1999/xlink" x="0px" y="0px"
	 width="100%" viewBox="0 0 500 500" enable-background="new 0 0 500 500" xml:space="preserve">
<path fill="#000000" opacity="1.000000" stroke="none" 
	d="
M316.000000,501.000000 
	C210.666687,501.000000 105.833382,501.000000 1.000056,501.000000 
	C1.000037,334.333405 1.000037,167.666794 1.000019,1.000146 
	C167.666565,1.000097 334.333130,1.000097 500.999756,1.000049 
	C500.999847,167.666519 500.999847,334.333038 500.999939,500.999786 
	C439.500000,501.000000 378.000000,501.000000 316.000000,501.000000 
M326.852875,134.463867 
	C326.651764,134.181519 326.385712,133.988815 325.916962,133.194824 
	C320.477631,127.552208 313.951569,129.796555 307.116119,130.435867 
	C307.468201,137.638306 306.890961,144.479019 301.365631,150.110733 
	C300.915802,150.743164 300.466003,151.375595 299.998779,152.000000 
	C299.998779,152.000000 300.008972,152.016632 299.325043,152.012512 
	C298.551788,152.365250 297.778534,152.717987 296.364746,153.102539 
	C295.579193,153.424377 294.793671,153.746231 293.392639,153.764206 
	C291.922699,153.217773 290.452759,152.671326 288.273621,151.996460 
	C286.518219,150.341995 283.788666,148.972168 283.205231,146.975266 
	C281.890442,142.475494 281.326447,137.682709 281.063171,132.975250 
	C280.888397,129.850204 279.782288,128.931213 276.853577,129.015320 
	C271.779572,129.161087 266.697968,129.040771 261.619568,129.038437 
	C252.849930,129.034378 244.080292,129.035019 235.310654,129.034027 
	C231.373123,129.033585 227.435593,129.033951 223.169983,129.033951 
	C222.961731,138.049698 223.134811,146.649368 214.370377,152.093353 
	C213.552338,152.705750 212.734314,153.318146 211.453842,153.954834 
	C211.453842,153.954834 210.990891,153.965836 210.286346,153.897018 
	C208.521118,153.308136 206.755890,152.719238 204.303375,152.006165 
	C202.530075,151.004913 200.756760,150.003677 198.947708,148.411163 
	C198.624680,147.961914 198.301636,147.512665 197.905869,146.537186 
	C197.886292,146.361191 197.866699,146.185196 197.878830,145.174545 
	C197.581268,141.584030 197.147079,137.998428 197.017807,134.401855 
	C196.817978,128.841812 195.571548,128.001419 189.196030,130.017441 
	C176.817612,129.310074 171.205826,134.565155 171.053467,147.072403 
	C171.009125,150.712463 171.098831,154.354172 171.060944,158.930695 
	C171.049774,188.567627 171.018875,218.204575 171.057129,247.841431 
	C171.061081,250.902237 170.660431,254.336884 171.858841,256.951141 
	C175.140121,264.109131 180.947311,267.988220 189.130692,267.979218 
	C226.759735,267.937805 264.389252,268.048035 302.017548,267.875885 
	C308.029053,267.848389 314.039307,266.695953 320.042816,266.000488 
	C325.663116,265.349457 329.597198,261.880127 330.421814,256.722504 
	C331.637054,249.121582 331.872009,241.310181 331.914276,233.585083 
	C332.070953,204.948700 331.993744,176.310928 331.934021,147.673813 
	C331.930817,146.126389 331.287262,144.580307 330.954987,142.290695 
	C330.605835,141.202332 330.256714,140.113953 329.903595,138.363327 
	C328.965149,137.231445 328.026672,136.099564 327.055054,134.956818 
	C327.055054,134.956818 327.034149,134.928833 326.852875,134.463867 
M206.949966,332.361359 
	C206.950195,328.865021 206.994629,325.367981 206.937653,321.872589 
	C206.885590,318.679138 207.736404,315.825073 211.441254,316.135742 
	C214.878098,316.423981 215.137604,319.449585 215.082840,322.331146 
	C214.997452,326.824127 214.818939,331.330200 215.051666,335.811432 
	C215.572205,345.834595 215.665955,345.832336 225.209183,344.493073 
	C225.773575,344.413879 226.324783,344.240814 226.970749,344.090851 
	C226.970749,334.612610 227.023193,325.463043 226.914688,316.315369 
	C226.898254,314.929230 226.378403,313.410156 225.674133,312.194244 
	C221.798676,305.503174 216.378052,304.131989 209.453735,307.685730 
	C207.935135,308.465149 205.972198,308.887970 204.286850,308.724182 
	C201.066406,308.411163 197.919754,307.234283 194.702545,307.022430 
	C191.602585,306.818329 188.451660,307.565186 185.324142,307.555786 
	C181.760468,307.545105 178.197937,307.159851 174.045425,306.900635 
	C174.045425,317.790039 174.063492,327.899506 174.039230,338.008911 
	C174.022354,345.035736 174.949631,345.861908 182.220535,345.036469 
	C183.333923,344.910095 184.436630,344.689697 185.985870,344.442230 
	C185.985870,336.950928 185.908569,329.655701 186.050323,322.364685 
	C186.079086,320.885986 186.517654,318.944336 187.515549,318.075989 
	C188.731293,317.018097 191.540863,315.930084 192.234863,316.523376 
	C193.662811,317.744049 194.818390,320.047333 194.893250,321.951965 
	C195.185638,329.390717 195.012604,336.847778 195.012604,344.732483 
	C199.274582,344.732483 203.010773,344.732483 206.950134,344.732483 
	C206.950134,340.543579 206.950134,336.924988 206.949966,332.361359 
M283.373596,307.731720 
	C282.568024,306.816498 281.190765,305.971527 281.067932,304.972382 
	C280.745544,302.349457 280.971069,299.659393 280.975983,296.996063 
	C280.993988,287.258820 280.993134,287.252686 271.282410,288.040039 
	C270.652283,288.091125 270.038696,288.345825 269.438110,288.500488 
	C269.438110,307.171509 269.438110,325.673981 269.438110,343.668549 
	C273.845886,344.093018 278.072540,344.708954 282.314545,344.844604 
	C285.927399,344.960144 289.802673,345.273987 293.134369,344.188232 
	C302.842834,341.024353 308.074341,325.537262 303.199677,315.623596 
	C299.487427,308.073975 293.736847,305.698212 283.373596,307.731720 
M137.994919,320.499512 
	C137.993744,317.007996 137.994766,313.516479 137.990936,310.024963 
	C137.979446,299.555115 137.979248,299.626709 148.290726,299.549866 
	C149.507324,299.540771 151.633881,298.354980 151.758850,297.487152 
	C152.191315,294.483887 151.925552,291.380066 151.925552,287.976501 
	C139.068573,287.976501 127.108902,288.099426 115.153488,287.927002 
	C108.738075,287.834503 111.370163,292.476868 111.148643,295.328217 
	C110.881287,298.769531 112.226814,300.152344 116.330360,299.227570 
	C123.817612,297.540222 125.908615,299.732483 125.090286,306.968506 
	C124.978775,307.954529 125.034523,308.962006 125.047623,309.959106 
	C125.180939,320.103333 125.302391,330.247833 125.473495,340.391449 
	C125.515892,342.905212 130.047989,346.184479 133.221497,345.872986 
	C137.061020,345.496155 138.619537,342.917755 138.565109,339.357147 
	C138.474060,333.402863 138.195908,327.451385 137.994919,320.499512 
M342.867035,316.982849 
	C339.070801,309.217743 332.939484,306.323181 324.298370,306.771027 
	C317.816193,307.106995 312.040741,309.501434 309.400146,315.387146 
	C307.202087,320.286499 307.303589,325.373535 307.929230,330.786072 
	C309.481323,344.214386 322.509796,347.067993 332.478271,344.154907 
	C340.667206,341.761871 347.506287,328.842773 342.867035,316.982849 
M241.961304,307.556549 
	C236.283875,309.566803 232.013123,315.516235 232.005341,321.437286 
	C232.001175,324.598511 232.231171,327.778564 231.964127,330.916840 
	C231.469055,336.734619 234.651047,340.565186 239.199860,342.790924 
	C247.291763,346.750275 255.542419,346.047699 263.467072,341.972107 
	C262.557373,333.976318 262.024139,333.520996 255.654068,335.066132 
	C254.689453,335.300140 253.748993,335.835114 252.789764,335.854462 
	C248.866333,335.933716 245.175049,335.518433 244.347839,329.947418 
	C249.771622,329.947418 254.880295,330.106293 259.968079,329.850433 
	C261.490875,329.773865 264.020508,328.775116 264.239716,327.788147 
	C264.813690,325.203979 264.908875,322.250580 264.236786,319.696472 
	C260.670929,306.144775 255.310089,305.556824 241.961304,307.556549 
M371.872406,322.616913 
	C375.358490,317.789490 378.844543,312.962067 383.077271,307.100647 
	C377.680847,307.100647 373.546082,306.023804 370.549774,307.409241 
	C367.663177,308.743958 365.952942,312.622742 362.824921,316.500732 
	C360.032532,305.429718 352.797607,306.377777 344.064819,307.615417 
	C347.590424,313.136139 350.778809,318.012604 353.818939,322.979767 
	C354.489532,324.075439 355.337524,325.868744 354.895691,326.694122 
	C353.303009,329.669464 351.189392,332.365234 349.281647,335.172821 
	C347.489929,337.809601 345.709778,340.454315 343.094574,344.323395 
	C347.945496,344.588593 352.283691,346.140533 354.826111,344.643250 
	C358.267151,342.616791 360.330322,338.250610 363.145386,334.684479 
	C364.250336,336.446320 365.800018,338.243225 366.587463,340.328033 
	C367.822906,343.599060 369.787079,345.039276 373.298096,344.719849 
	C374.912415,344.572998 376.586456,345.185120 378.221069,345.123993 
	C379.373718,345.080902 380.871918,344.796082 381.525055,344.030121 
	C382.003815,343.468658 381.696503,341.737213 381.160095,340.897156 
	C378.939697,337.419769 376.286804,334.206604 374.215973,330.650024 
	C372.904602,328.397797 372.339905,325.710876 371.872406,322.616913 
M168.973389,340.134888 
	C168.970093,330.511475 169.025818,320.887482 168.927368,311.265045 
	C168.898041,308.396271 167.939316,306.065613 164.254440,306.768616 
	C160.980545,307.393188 155.989548,304.945679 156.031830,311.440277 
	C156.062088,316.086426 156.031555,320.732880 156.034790,325.379211 
	C156.038269,330.357086 155.896103,335.341370 156.103439,340.310913 
	C156.285965,344.685486 159.535629,345.730103 163.176376,345.940552 
	C166.588455,346.137787 169.136078,345.159119 168.973389,340.134888 
M216.960236,125.768158 
	C216.883911,124.447113 216.919479,123.108093 216.710587,121.808357 
	C216.048325,117.687767 213.448853,115.282021 209.418228,115.127731 
	C205.329987,114.971237 203.173752,117.737396 202.323776,121.485344 
	C201.998947,122.917686 201.897812,124.447510 201.981201,125.916649 
	C202.204193,129.845779 203.092270,133.807114 202.781006,137.680481 
	C202.297073,143.702454 203.971710,147.383942 208.415970,147.904861 
	C213.202011,148.465836 216.676254,145.016510 216.923828,139.162186 
	C217.099075,135.017899 216.959320,130.860291 216.960236,125.768158 
M300.986542,130.529648 
	C300.710052,127.097923 301.174957,123.355621 299.910736,120.337669 
	C298.982971,118.122971 295.896576,115.695328 293.574982,115.479012 
	C290.972687,115.236534 287.089233,115.991226 286.955139,120.430244 
	C286.754395,127.074936 286.540405,133.720032 286.234863,140.360458 
	C286.025116,144.919403 288.151367,147.494888 292.628326,147.686676 
	C296.629303,147.858078 299.880737,146.298111 300.453552,141.864456 
	C300.895477,138.443863 300.822266,134.956711 300.986542,130.529648 
M158.499100,299.938171 
	C160.771667,303.337860 163.910721,301.891083 165.833023,300.275238 
	C167.537903,298.842133 168.762146,295.895630 168.726303,293.640594 
	C168.699158,291.932617 166.608109,289.221527 164.980103,288.824554 
	C162.700027,288.268616 159.180344,288.600983 157.653763,290.071686 
	C154.936111,292.689819 155.063431,296.357422 158.499100,299.938171 
z"/>
<path fill="#202020" opacity="1.000000" stroke="none" 
	d="
M330.941772,143.033615 
	C331.287262,144.580307 331.930817,146.126389 331.934021,147.673813 
	C331.993744,176.310928 332.070953,204.948700 331.914276,233.585083 
	C331.872009,241.310181 331.637054,249.121582 330.421814,256.722504 
	C329.597198,261.880127 325.663116,265.349457 320.042816,266.000488 
	C314.039307,266.695953 308.029053,267.848389 302.017548,267.875885 
	C264.389252,268.048035 226.759735,267.937805 189.130692,267.979218 
	C180.947311,267.988220 175.140121,264.109131 171.858841,256.951141 
	C170.660431,254.336884 171.061081,250.902237 171.057129,247.841431 
	C171.018875,218.204575 171.049774,188.567627 171.470947,158.564545 
	C172.440521,163.743835 173.821060,169.360077 173.350250,174.816605 
	C172.771591,181.523117 173.437164,182.985825 179.919708,182.465515 
	C180.318359,188.263657 180.644791,193.599564 181.019714,199.406433 
	C181.041245,215.303543 181.300461,230.738159 180.844543,246.151611 
	C180.665558,252.202637 182.617676,255.977264 188.395691,258.383789 
	C189.323929,258.785461 189.972412,258.989014 190.620987,258.989288 
	C230.484131,259.005829 270.347290,259.013977 310.210388,258.968292 
	C311.438629,258.966858 312.666199,258.390472 314.259033,258.035522 
	C320.104584,256.284576 321.955505,252.087753 322.006866,246.861267 
	C322.085480,238.865570 321.986786,230.868164 321.969116,222.410980 
	C321.972260,214.007019 321.969604,206.063553 321.982361,197.644135 
	C322.055786,188.438858 322.113892,179.709534 322.527374,171.036377 
	C324.274200,171.747543 325.665619,172.402557 327.110565,173.082779 
	C328.114563,163.909210 329.033997,155.310028 330.020172,146.718536 
	C330.163300,145.471405 330.626617,144.261002 330.941772,143.033615 
z"/>
<path fill="#242424" opacity="1.000000" stroke="none" 
	d="
M215.010941,152.093552 
	C223.134811,146.649368 222.961731,138.049698 223.169983,129.033951 
	C227.435593,129.033951 231.373123,129.033585 235.310654,129.034027 
	C244.080292,129.035019 252.849930,129.034378 261.619568,129.038437 
	C266.697968,129.040771 271.779572,129.161087 276.853577,129.015320 
	C279.782288,128.931213 280.888397,129.850204 281.063171,132.975250 
	C281.326447,137.682709 281.890442,142.475494 283.205231,146.975266 
	C283.788666,148.972168 286.518219,150.341995 288.641968,152.419785 
	C290.673553,153.895615 292.336761,154.948105 294.000000,156.000305 
	C294.000000,156.000000 294.000000,155.999390 293.994263,156.353912 
	C293.323120,158.107773 292.657654,159.507111 291.524506,160.926193 
	C266.375305,160.935440 241.693802,160.924942 216.970673,160.569321 
	C216.289658,157.513977 215.650299,154.803757 215.010941,152.093552 
z"/>
<path fill="#212121" opacity="1.000000" stroke="none" 
	d="
M206.950043,332.833862 
	C206.950134,336.924988 206.950134,340.543579 206.950134,344.732483 
	C203.010773,344.732483 199.274582,344.732483 195.012604,344.732483 
	C195.012604,336.847778 195.185638,329.390717 194.893250,321.951965 
	C194.818390,320.047333 193.662811,317.744049 192.234863,316.523376 
	C191.540863,315.930084 188.731293,317.018097 187.515549,318.075989 
	C186.517654,318.944336 186.079086,320.885986 186.050323,322.364685 
	C185.908569,329.655701 185.985870,336.950928 185.985870,344.442230 
	C184.436630,344.689697 183.333923,344.910095 182.220535,345.036469 
	C174.949631,345.861908 174.022354,345.035736 174.039230,338.008911 
	C174.063492,327.899506 174.045425,317.790039 174.045425,306.900635 
	C178.197937,307.159851 181.760468,307.545105 185.324142,307.555786 
	C188.451660,307.565186 191.602585,306.818329 194.702545,307.022430 
	C197.919754,307.234283 201.066406,308.411163 204.286850,308.724182 
	C205.972198,308.887970 207.935135,308.465149 209.453735,307.685730 
	C216.378052,304.131989 221.798676,305.503174 225.674133,312.194244 
	C226.378403,313.410156 226.898254,314.929230 226.914688,316.315369 
	C227.023193,325.463043 226.970749,334.612610 226.970749,344.090851 
	C226.324783,344.240814 225.773575,344.413879 225.209183,344.493073 
	C215.665955,345.832336 215.572205,345.834595 215.051666,335.811432 
	C214.818939,331.330200 214.997452,326.824127 215.082840,322.331146 
	C215.137604,319.449585 214.878098,316.423981 211.441254,316.135742 
	C207.736404,315.825073 206.885590,318.679138 206.937653,321.872589 
	C206.994629,325.367981 206.950195,328.865021 206.950043,332.833862 
z"/>
<path fill="#222222" opacity="1.000000" stroke="none" 
	d="
M283.778473,307.566833 
	C293.736847,305.698212 299.487427,308.073975 303.199677,315.623596 
	C308.074341,325.537262 302.842834,341.024353 293.134369,344.188232 
	C289.802673,345.273987 285.927399,344.960144 282.314545,344.844604 
	C278.072540,344.708954 273.845886,344.093018 269.438110,343.668549 
	C269.438110,325.673981 269.438110,307.171509 269.438110,288.500488 
	C270.038696,288.345825 270.652283,288.091125 271.282410,288.040039 
	C280.993134,287.252686 280.993988,287.258820 280.975983,296.996063 
	C280.971069,299.659393 280.745544,302.349457 281.067932,304.972382 
	C281.190765,305.971527 282.568024,306.816498 283.778473,307.566833 
M291.258789,331.469788 
	C291.117981,327.321808 291.433777,323.076050 290.578125,319.081177 
	C290.294891,317.758820 286.840393,316.119141 285.118958,316.394501 
	C283.541840,316.646790 281.457672,319.139648 281.167511,320.903595 
	C280.557922,324.609222 280.786896,328.498810 281.070190,332.283051 
	C281.186432,333.836212 281.993896,336.161255 283.098541,336.601837 
	C284.388824,337.116455 286.509369,336.246094 287.965820,335.432587 
	C289.185486,334.751404 289.968048,333.287659 291.258789,331.469788 
z"/>
<path fill="#202020" opacity="1.000000" stroke="none" 
	d="
M137.995728,320.999146 
	C138.195908,327.451385 138.474060,333.402863 138.565109,339.357147 
	C138.619537,342.917755 137.061020,345.496155 133.221497,345.872986 
	C130.047989,346.184479 125.515892,342.905212 125.473495,340.391449 
	C125.302391,330.247833 125.180939,320.103333 125.047623,309.959106 
	C125.034523,308.962006 124.978775,307.954529 125.090286,306.968506 
	C125.908615,299.732483 123.817612,297.540222 116.330360,299.227570 
	C112.226814,300.152344 110.881287,298.769531 111.148643,295.328217 
	C111.370163,292.476868 108.738075,287.834503 115.153488,287.927002 
	C127.108902,288.099426 139.068573,287.976501 151.925552,287.976501 
	C151.925552,291.380066 152.191315,294.483887 151.758850,297.487152 
	C151.633881,298.354980 149.507324,299.540771 148.290726,299.549866 
	C137.979248,299.626709 137.979446,299.555115 137.990936,310.024963 
	C137.994766,313.516479 137.993744,317.007996 137.995728,320.999146 
z"/>
<path fill="#222222" opacity="1.000000" stroke="none" 
	d="
M342.949524,317.361389 
	C347.506287,328.842773 340.667206,341.761871 332.478271,344.154907 
	C322.509796,347.067993 309.481323,344.214386 307.929230,330.786072 
	C307.303589,325.373535 307.202087,320.286499 309.400146,315.387146 
	C312.040741,309.501434 317.816193,307.106995 324.298370,306.771027 
	C332.939484,306.323181 339.070801,309.217743 342.949524,317.361389 
M319.839203,327.794556 
	C320.175049,329.386047 320.058929,331.331787 320.959442,332.480713 
	C322.125946,333.969025 324.145142,335.764038 325.719696,335.693573 
	C327.419800,335.617493 330.315704,333.665894 330.446228,332.315521 
	C330.890686,327.717102 330.716278,322.960999 329.950592,318.404114 
	C329.725830,317.066345 326.708282,315.277740 325.052002,315.358704 
	C323.387146,315.440125 321.022888,317.287231 320.402466,318.910095 
	C319.462524,321.368744 319.766418,324.302948 319.839203,327.794556 
z"/>
<path fill="#242424" opacity="1.000000" stroke="none" 
	d="
M179.847458,182.003265 
	C173.437164,182.985825 172.771591,181.523117 173.350250,174.816605 
	C173.821060,169.360077 172.440521,163.743835 171.504028,158.096771 
	C171.098831,154.354172 171.009125,150.712463 171.053467,147.072403 
	C171.205826,134.565155 176.817612,129.310074 189.794922,130.266113 
	C194.019043,130.179123 195.058731,131.780807 195.150711,135.404495 
	C195.241974,138.998901 192.999893,143.523117 197.847122,146.009201 
	C197.866699,146.185196 197.886292,146.361191 197.970184,147.088623 
	C198.350830,148.094177 198.667145,148.548309 198.983459,149.002426 
	C200.756760,150.003677 202.530075,151.004913 204.708740,152.394257 
	C208.627243,154.819977 206.906616,158.065018 206.519073,160.923950 
	C198.022659,160.942535 189.992859,160.932068 181.717102,160.665009 
	C180.647324,161.386917 179.536270,162.245010 179.064285,163.370987 
	C178.277267,165.248535 177.899368,167.297562 177.115997,170.112473 
	C177.490829,170.508209 178.668976,171.752075 179.923477,173.441055 
	C179.949036,176.591873 179.898254,179.297577 179.847458,182.003265 
z"/>
<path fill="#212121" opacity="1.000000" stroke="none" 
	d="
M242.293732,307.387756 
	C255.310089,305.556824 260.670929,306.144775 264.236786,319.696472 
	C264.908875,322.250580 264.813690,325.203979 264.239716,327.788147 
	C264.020508,328.775116 261.490875,329.773865 259.968079,329.850433 
	C254.880295,330.106293 249.771622,329.947418 244.347839,329.947418 
	C245.175049,335.518433 248.866333,335.933716 252.789764,335.854462 
	C253.748993,335.835114 254.689453,335.300140 255.654068,335.066132 
	C262.024139,333.520996 262.557373,333.976318 263.467072,341.972107 
	C255.542419,346.047699 247.291763,346.750275 239.199860,342.790924 
	C234.651047,340.565186 231.469055,336.734619 231.964127,330.916840 
	C232.231171,327.778564 232.001175,324.598511 232.005341,321.437286 
	C232.013123,315.516235 236.283875,309.566803 242.293732,307.387756 
M245.040497,321.792236 
	C246.517792,321.859344 248.112915,322.305847 249.441193,321.893219 
	C250.946518,321.425568 252.212708,320.188110 253.582870,319.285339 
	C251.801605,317.905579 249.918610,315.294098 248.262604,315.430908 
	C245.693314,315.643097 242.857193,317.463196 245.040497,321.792236 
z"/>
<path fill="#222222" opacity="1.000000" stroke="none" 
	d="
M371.656372,322.917908 
	C372.339905,325.710876 372.904602,328.397797 374.215973,330.650024 
	C376.286804,334.206604 378.939697,337.419769 381.160095,340.897156 
	C381.696503,341.737213 382.003815,343.468658 381.525055,344.030121 
	C380.871918,344.796082 379.373718,345.080902 378.221069,345.123993 
	C376.586456,345.185120 374.912415,344.572998 373.298096,344.719849 
	C369.787079,345.039276 367.822906,343.599060 366.587463,340.328033 
	C365.800018,338.243225 364.250336,336.446320 363.145386,334.684479 
	C360.330322,338.250610 358.267151,342.616791 354.826111,344.643250 
	C352.283691,346.140533 347.945496,344.588593 343.094574,344.323395 
	C345.709778,340.454315 347.489929,337.809601 349.281647,335.172821 
	C351.189392,332.365234 353.303009,329.669464 354.895691,326.694122 
	C355.337524,325.868744 354.489532,324.075439 353.818939,322.979767 
	C350.778809,318.012604 347.590424,313.136139 344.064819,307.615417 
	C352.797607,306.377777 360.032532,305.429718 362.824921,316.500732 
	C365.952942,312.622742 367.663177,308.743958 370.549774,307.409241 
	C373.546082,306.023804 377.680847,307.100647 383.077271,307.100647 
	C378.844543,312.962067 375.358490,317.789490 371.656372,322.917908 
z"/>
<path fill="#242424" opacity="1.000000" stroke="none" 
	d="
M330.948364,142.662155 
	C330.626617,144.261002 330.163300,145.471405 330.020172,146.718536 
	C329.033997,155.310028 328.114563,163.909210 327.110565,173.082779 
	C325.665619,172.402557 324.274200,171.747543 322.484009,170.666412 
	C322.116943,169.497009 322.148621,168.753677 322.513763,167.938110 
	C325.749146,165.225739 326.085938,162.869751 321.612122,160.981293 
	C312.764038,160.942932 304.389893,160.917435 296.010864,160.507172 
	C295.337311,158.748062 294.668671,157.373718 294.000000,155.999390 
	C294.000000,155.999390 294.000000,156.000000 294.000549,155.677795 
	C294.003448,154.926422 294.005768,154.497253 294.008118,154.068069 
	C294.793671,153.746231 295.579193,153.424377 296.688904,153.431198 
	C297.401550,154.374619 297.790039,154.989365 298.178528,155.604126 
	C298.788666,154.408295 299.398804,153.212463 300.008972,152.016632 
	C300.008972,152.016632 299.998779,152.000000 300.321198,151.962189 
	C301.098297,151.308075 301.552948,150.691772 302.007629,150.075470 
	C306.890961,144.479019 307.468201,137.638306 307.116119,130.435867 
	C313.951569,129.796555 320.477631,127.552208 326.070618,133.779541 
	C326.494232,134.552444 326.764191,134.740646 327.034149,134.928833 
	C327.034149,134.928833 327.055054,134.956818 327.047424,135.325592 
	C327.995728,136.804794 328.951660,137.915192 329.907593,139.025589 
	C330.256714,140.113953 330.605835,141.202332 330.948364,142.662155 
z"/>
<path fill="#202020" opacity="1.000000" stroke="none" 
	d="
M168.970078,340.590485 
	C169.136078,345.159119 166.588455,346.137787 163.176376,345.940552 
	C159.535629,345.730103 156.285965,344.685486 156.103439,340.310913 
	C155.896103,335.341370 156.038269,330.357086 156.034790,325.379211 
	C156.031555,320.732880 156.062088,316.086426 156.031830,311.440277 
	C155.989548,304.945679 160.980545,307.393188 164.254440,306.768616 
	C167.939316,306.065613 168.898041,308.396271 168.927368,311.265045 
	C169.025818,320.887482 168.970093,330.511475 168.970078,340.590485 
z"/>
<path fill="#222222" opacity="1.000000" stroke="none" 
	d="
M216.960205,126.238388 
	C216.959320,130.860291 217.099075,135.017899 216.923828,139.162186 
	C216.676254,145.016510 213.202011,148.465836 208.415970,147.904861 
	C203.971710,147.383942 202.297073,143.702454 202.781006,137.680481 
	C203.092270,133.807114 202.204193,129.845779 201.981201,125.916649 
	C201.897812,124.447510 201.998947,122.917686 202.323776,121.485344 
	C203.173752,117.737396 205.329987,114.971237 209.418228,115.127731 
	C213.448853,115.282021 216.048325,117.687767 216.710587,121.808357 
	C216.919479,123.108093 216.883911,124.447113 216.960205,126.238388 
z"/>
<path fill="#242424" opacity="1.000000" stroke="none" 
	d="
M300.982300,131.014404 
	C300.822266,134.956711 300.895477,138.443863 300.453552,141.864456 
	C299.880737,146.298111 296.629303,147.858078 292.628326,147.686676 
	C288.151367,147.494888 286.025116,144.919403 286.234863,140.360458 
	C286.540405,133.720032 286.754395,127.074936 286.955139,120.430244 
	C287.089233,115.991226 290.972687,115.236534 293.574982,115.479012 
	C295.896576,115.695328 298.982971,118.122971 299.910736,120.337669 
	C301.174957,123.355621 300.710052,127.097923 300.982300,131.014404 
z"/>
<path fill="#202020" opacity="1.000000" stroke="none" 
	d="
M158.227570,299.661865 
	C155.063431,296.357422 154.936111,292.689819 157.653763,290.071686 
	C159.180344,288.600983 162.700027,288.268616 164.980103,288.824554 
	C166.608109,289.221527 168.699158,291.932617 168.726303,293.640594 
	C168.762146,295.895630 167.537903,298.842133 165.833023,300.275238 
	C163.910721,301.891083 160.771667,303.337860 158.227570,299.661865 
z"/>
<path fill="#202020" opacity="1.000000" stroke="none" 
	d="
M206.985657,160.894897 
	C206.906616,158.065018 208.627243,154.819977 205.052399,152.456345 
	C206.755890,152.719238 208.521118,153.308136 210.674377,154.223114 
	C211.497543,154.852737 211.932693,155.156250 212.367828,155.459778 
	C212.217316,154.950043 212.066788,154.440292 211.916260,153.930542 
	C212.734314,153.318146 213.552338,152.705750 214.690659,152.093445 
	C215.650299,154.803757 216.289658,157.513977 216.515656,160.597183 
	C213.063400,160.945084 210.024536,160.919998 206.985657,160.894897 
z"/>
<path fill="#202020" opacity="1.000000" stroke="none" 
	d="
M197.862976,145.591873 
	C192.999893,143.523117 195.241974,138.998901 195.150711,135.404495 
	C195.058731,131.780807 194.019043,130.179123 190.202118,130.271210 
	C195.571548,128.001419 196.817978,128.841812 197.017807,134.401855 
	C197.147079,137.998428 197.581268,141.584030 197.862976,145.591873 
z"/>
<path fill="#202020" opacity="1.000000" stroke="none" 
	d="
M293.700378,153.916138 
	C294.005768,154.497253 294.003448,154.926422 294.000549,155.678101 
	C292.336761,154.948105 290.673553,153.895615 288.996582,152.484009 
	C290.452759,152.671326 291.922699,153.217773 293.700378,153.916138 
z"/>
<path fill="#202020" opacity="1.000000" stroke="none" 
	d="
M299.666992,152.014572 
	C299.398804,153.212463 298.788666,154.408295 298.178528,155.604126 
	C297.790039,154.989365 297.401550,154.374619 297.009155,153.415283 
	C297.778534,152.717987 298.551788,152.365250 299.666992,152.014572 
z"/>
<path fill="#202020" opacity="1.000000" stroke="none" 
	d="
M329.905579,138.694458 
	C328.951660,137.915192 327.995728,136.804794 327.064026,135.331024 
	C328.026672,136.099564 328.965149,137.231445 329.905579,138.694458 
z"/>
<path fill="#202020" opacity="1.000000" stroke="none" 
	d="
M301.686646,150.093109 
	C301.552948,150.691772 301.098297,151.308075 300.329895,151.966217 
	C300.466003,151.375595 300.915802,150.743164 301.686646,150.093109 
z"/>
<path fill="#242424" opacity="1.000000" stroke="none" 
	d="
M211.685059,153.942688 
	C212.066788,154.440292 212.217316,154.950043 212.367828,155.459778 
	C211.932693,155.156250 211.497543,154.852737 211.026642,154.257523 
	C210.990891,153.965836 211.453842,153.954834 211.685059,153.942688 
z"/>
<path fill="#202020" opacity="1.000000" stroke="none" 
	d="
M198.965576,148.706787 
	C198.667145,148.548309 198.350830,148.094177 198.006561,147.351746 
	C198.301636,147.512665 198.624680,147.961914 198.965576,148.706787 
z"/>
<path fill="#202020" opacity="1.000000" stroke="none" 
	d="
M326.943512,134.696350 
	C326.764191,134.740646 326.494232,134.552444 326.139465,134.125000 
	C326.385712,133.988815 326.651764,134.181519 326.943512,134.696350 
z"/>
<path fill="#000000" opacity="1.000000" stroke="none" 
	d="
M206.519073,160.923950 
	C210.024536,160.919998 213.063400,160.945084 216.557297,160.942322 
	C241.693802,160.924942 266.375305,160.935440 291.926147,160.955109 
	C293.868896,160.940170 294.942291,160.916061 296.015717,160.891937 
	C304.389893,160.917435 312.764038,160.942932 321.596100,161.419724 
	C322.096069,163.917465 322.138184,165.963913 322.180298,168.010361 
	C322.148621,168.753677 322.116943,169.497009 322.128601,170.610275 
	C322.113892,179.709534 322.055786,188.438858 321.569153,197.783005 
	C321.093903,204.133835 320.948669,209.871506 321.047028,215.605011 
	C321.088654,218.031693 321.642365,220.449585 321.963318,222.871475 
	C321.986786,230.868164 322.085480,238.865570 322.006866,246.861267 
	C321.955505,252.087753 320.104584,256.284576 313.802368,258.000824 
	C271.359192,258.038757 229.737595,258.064758 188.115997,258.090759 
	C182.617676,255.977264 180.665558,252.202637 180.844543,246.151611 
	C181.300461,230.738159 181.041245,215.303543 181.032867,198.942078 
	C180.978348,189.380157 180.959183,180.753586 180.955765,171.692413 
	C181.302032,167.812424 181.632538,164.367004 181.963043,160.921585 
	C189.992859,160.932068 198.022659,160.942535 206.519073,160.923950 
M298.554321,192.750443 
	C297.582123,192.784042 296.206757,192.408966 295.697235,192.911591 
	C285.552582,202.918747 275.351166,212.877579 265.513580,223.182587 
	C261.025238,227.884171 256.310242,230.904449 249.058807,229.143768 
	C249.058807,234.145615 249.058807,238.710388 249.058807,243.885574 
	C246.852295,243.260315 245.242783,243.013535 243.817749,242.362762 
	C238.721024,240.035324 233.700211,237.542389 228.624695,235.167587 
	C224.761032,233.359802 220.751251,231.831772 217.016983,229.793594 
	C215.120300,228.758392 212.376328,226.958603 212.270004,225.354980 
	C211.768326,217.788101 212.046387,210.169540 212.046387,202.009918 
	C220.062988,205.661453 227.406189,209.006256 234.976410,212.454453 
	C235.200256,200.590027 224.730484,199.352478 218.084106,194.427155 
	C229.281464,189.039352 239.619492,184.036316 250.003372,179.130371 
	C250.730179,178.786987 251.900085,178.915771 252.686554,179.246658 
	C255.743469,180.532639 258.756561,181.932220 261.735077,183.393295 
	C268.539825,186.731384 268.527649,186.756210 274.214935,179.442429 
	C266.454559,176.194458 258.986389,173.020355 251.460098,169.990692 
	C250.671844,169.673370 249.441803,169.992722 248.582443,170.382263 
	C236.396515,175.905640 224.176727,181.361526 212.109070,187.134659 
	C207.900742,189.147919 203.052612,191.052399 203.054504,197.104568 
	C203.057648,207.103317 202.972778,217.103165 203.100021,227.100311 
	C203.151764,231.165314 204.707748,233.918320 209.072128,235.731339 
	C220.182022,240.346512 230.970886,245.734970 241.884521,250.821869 
	C247.049530,253.229279 252.036377,255.395325 257.964569,252.490738 
	C269.712982,246.734467 281.734222,241.533875 293.465179,235.743958 
	C295.972351,234.506516 297.723724,231.737686 299.956818,228.791245 
	C300.290222,221.756088 300.939270,214.716873 300.848785,207.687164 
	C300.785889,202.801132 299.706482,197.928177 298.554321,192.750443 
M263.486725,197.966034 
	C260.751709,200.509064 258.016724,203.052078 255.586166,205.312012 
	C252.601227,202.997986 249.989868,201.041626 247.455780,198.989807 
	C244.951630,196.962250 241.991364,196.969788 240.500214,199.388367 
	C239.156113,201.568481 238.178406,205.335938 239.178009,207.332443 
	C241.705856,212.381317 245.322311,216.913177 248.730316,221.482361 
	C250.635132,224.036163 253.325363,225.549652 256.370361,223.313721 
	C259.505829,221.011353 262.552673,218.522919 265.314026,215.788452 
	C274.454437,206.736984 283.464447,197.553452 292.488342,188.385056 
	C294.930939,185.903366 294.524841,183.325104 292.334381,180.905441 
	C288.662811,176.849731 284.734650,177.614044 279.860718,182.590271 
	C274.791809,187.765579 269.329651,192.555725 263.486725,197.966034 
z"/>
<path fill="#3B3B3B" opacity="1.000000" stroke="none" 
	d="
M188.395691,258.383759 
	C229.737595,258.064758 271.359192,258.038757 313.437439,258.047424 
	C312.666199,258.390472 311.438629,258.966858 310.210388,258.968292 
	C270.347290,259.013977 230.484131,259.005829 190.620987,258.989288 
	C189.972412,258.989014 189.323929,258.785461 188.395691,258.383759 
z"/>
<path fill="#FFFFFF" opacity="1.000000" stroke="none" 
	d="
M180.940002,172.126999 
	C180.959183,180.753586 180.978348,189.380157 180.984360,198.471100 
	C180.644791,193.599564 180.318359,188.263657 179.919708,182.465515 
	C179.898254,179.297577 179.949036,176.591873 180.016205,173.190033 
	C180.335052,172.371597 180.637527,172.249298 180.940002,172.126999 
z"/>
<path fill="#FFFFFF" opacity="1.000000" stroke="none" 
	d="
M321.969116,222.410980 
	C321.642365,220.449585 321.088654,218.031693 321.047028,215.605011 
	C320.948669,209.871506 321.093903,204.133835 321.553802,198.258972 
	C321.969604,206.063553 321.972260,214.007019 321.969116,222.410980 
z"/>
<path fill="#202020" opacity="1.000000" stroke="none" 
	d="
M296.010864,160.507172 
	C294.942291,160.916061 293.868896,160.940170 292.393860,160.935364 
	C292.657654,159.507111 293.323120,158.107773 293.994263,156.353912 
	C294.668671,157.373718 295.337311,158.748062 296.010864,160.507172 
z"/>
<path fill="#000000" opacity="1.000000" stroke="none" 
	d="
M291.101501,331.820129 
	C289.968048,333.287659 289.185486,334.751404 287.965820,335.432587 
	C286.509369,336.246094 284.388824,337.116455 283.098541,336.601837 
	C281.993896,336.161255 281.186432,333.836212 281.070190,332.283051 
	C280.786896,328.498810 280.557922,324.609222 281.167511,320.903595 
	C281.457672,319.139648 283.541840,316.646790 285.118958,316.394501 
	C286.840393,316.119141 290.294891,317.758820 290.578125,319.081177 
	C291.433777,323.076050 291.117981,327.321808 291.101501,331.820129 
z"/>
<path fill="#000000" opacity="1.000000" stroke="none" 
	d="
M319.690552,327.414825 
	C319.766418,324.302948 319.462524,321.368744 320.402466,318.910095 
	C321.022888,317.287231 323.387146,315.440125 325.052002,315.358704 
	C326.708282,315.277740 329.725830,317.066345 329.950592,318.404114 
	C330.716278,322.960999 330.890686,327.717102 330.446228,332.315521 
	C330.315704,333.665894 327.419800,335.617493 325.719696,335.693573 
	C324.145142,335.764038 322.125946,333.969025 320.959442,332.480713 
	C320.058929,331.331787 320.175049,329.386047 319.690552,327.414825 
z"/>
<path fill="#202020" opacity="1.000000" stroke="none" 
	d="
M180.955780,171.692413 
	C180.637527,172.249298 180.335052,172.371597 179.939850,172.744904 
	C178.668976,171.752075 177.490829,170.508209 177.115997,170.112473 
	C177.899368,167.297562 178.277267,165.248535 179.064285,163.370987 
	C179.536270,162.245010 180.647324,161.386917 181.717102,160.665009 
	C181.632538,164.367004 181.302032,167.812424 180.955780,171.692413 
z"/>
<path fill="#000000" opacity="1.000000" stroke="none" 
	d="
M244.715500,321.533386 
	C242.857193,317.463196 245.693314,315.643097 248.262604,315.430908 
	C249.918610,315.294098 251.801605,317.905579 253.582886,319.285339 
	C252.212708,320.188110 250.946518,321.425568 249.441193,321.893219 
	C248.112915,322.305847 246.517792,321.859344 244.715500,321.533386 
z"/>
<path fill="#202020" opacity="1.000000" stroke="none" 
	d="
M322.513763,167.938110 
	C322.138184,165.963913 322.096069,163.917465 322.070007,161.432587 
	C326.085938,162.869751 325.749146,165.225739 322.513763,167.938110 
z"/>
<path fill="#222222" opacity="1.000000" stroke="none" 
	d="
M299.823273,229.674347 
	C297.723724,231.737686 295.972351,234.506516 293.465179,235.743958 
	C281.734222,241.533875 269.712982,246.734467 257.964569,252.490738 
	C252.036377,255.395325 247.049530,253.229279 241.884521,250.821869 
	C230.970886,245.734970 220.182022,240.346512 209.072128,235.731339 
	C204.707748,233.918320 203.151764,231.165314 203.100021,227.100311 
	C202.972778,217.103165 203.057648,207.103317 203.054504,197.104568 
	C203.052612,191.052399 207.900742,189.147919 212.109070,187.134659 
	C224.176727,181.361526 236.396515,175.905640 248.582443,170.382263 
	C249.441803,169.992722 250.671844,169.673370 251.460098,169.990692 
	C258.986389,173.020355 266.454559,176.194458 274.214935,179.442429 
	C268.527649,186.756210 268.539825,186.731384 261.735077,183.393295 
	C258.756561,181.932220 255.743469,180.532639 252.686554,179.246658 
	C251.900085,178.915771 250.730179,178.786987 250.003372,179.130371 
	C239.619492,184.036316 229.281464,189.039352 218.084106,194.427155 
	C224.730484,199.352478 235.200256,200.590027 234.976410,212.454453 
	C227.406189,209.006256 220.062988,205.661453 212.046387,202.009918 
	C212.046387,210.169540 211.768326,217.788101 212.270004,225.354980 
	C212.376328,226.958603 215.120300,228.758392 217.016983,229.793594 
	C220.751251,231.831772 224.761032,233.359802 228.624695,235.167587 
	C233.700211,237.542389 238.721024,240.035324 243.817749,242.362762 
	C245.242783,243.013535 246.852295,243.260315 249.058807,243.885574 
	C249.058807,238.710388 249.058807,234.145615 249.058807,229.143768 
	C256.310242,230.904449 261.025238,227.884171 265.513580,223.182587 
	C275.351166,212.877579 285.552582,202.918747 295.697235,192.911591 
	C296.206757,192.408966 297.582123,192.784042 298.790497,193.364624 
	C299.034241,202.799820 298.977081,211.621613 299.084503,220.441391 
	C299.122040,223.521591 299.565308,226.596832 299.823273,229.674347 
z"/>
<path fill="#212121" opacity="1.000000" stroke="none" 
	d="
M263.763092,197.740173 
	C269.329651,192.555725 274.791809,187.765579 279.860718,182.590271 
	C284.734650,177.614044 288.662811,176.849731 292.334381,180.905441 
	C294.524841,183.325104 294.930939,185.903366 292.488342,188.385056 
	C283.464447,197.553452 274.454437,206.736984 265.314026,215.788452 
	C262.552673,218.522919 259.505829,221.011353 256.370361,223.313721 
	C253.325363,225.549652 250.635132,224.036163 248.730316,221.482361 
	C245.322311,216.913177 241.705856,212.381317 239.178009,207.332443 
	C238.178406,205.335938 239.156113,201.568481 240.500214,199.388367 
	C241.991364,196.969788 244.951630,196.962250 247.455780,198.989807 
	C249.989868,201.041626 252.601227,202.997986 255.586166,205.312012 
	C258.016724,203.052078 260.751709,200.509064 263.763092,197.740173 
z"/>
<path fill="#A7A7A7" opacity="1.000000" stroke="none" 
	d="
M299.890045,229.232788 
	C299.565308,226.596832 299.122040,223.521591 299.084503,220.441391 
	C298.977081,211.621613 299.034241,202.799820 299.053955,193.514099 
	C299.706482,197.928177 300.785889,202.801132 300.848785,207.687164 
	C300.939270,214.716873 300.290222,221.756088 299.890045,229.232788 
z"/>
</svg>